<?xml version="1.0" encoding="utf-8"?>
<!-- Generator: Adobe Illustrator 18.0.0, SVG Export Plug-In . SVG Version: 6.00 Build 0)  -->
<!DOCTYPE svg PUBLIC "-//W3C//DTD SVG 1.1//EN" "http://www.w3.org/Graphics/SVG/1.1/DTD/svg11.dtd">
<svg version="1.1" id="Layer_1" xmlns="http://www.w3.org/2000/svg" xmlns:xlink="http://www.w3.org/1999/xlink" x="0px" y="0px"
	 viewBox="0 0 80 80" enable-background="new 0 0 80 80" xml:space="preserve">
<path d="M78.3,30.3c0-5.9-2.4-11.5-6.4-15.2c-3.6-3.3-8.1-4.7-13.2-4.2L51,12V8.9c0-0.1,0-0.3,0-0.4c-0.3-1.3-1.5-2.8-3.6-2.5
	c-1.3,0.2-26.6,3.9-26.7,3.9c-12.6,2.6-19,9.2-19,19.3c0,3.9,1.1,7.6,3.3,10.9c-2.2,3.2-3.3,7-3.3,10.9c0,9.6,6.6,19.5,17.6,19.5
	c0,0,0,0,0,0c0.6,0,1.3,0,2-0.1l7.7-1.1v3.2c0,0.1,0,0.3,0,0.4c0.3,1.3,1.4,2.5,3.1,2.5c0.2,0,0.3,0,0.5,0
	c1.3-0.2,26.6-3.9,26.7-3.9c12.6-2.6,19-9.1,19-19.3c0-3.9-1.1-7.7-3.3-10.9C77.2,37.9,78.3,34.2,78.3,30.3z M20.9,67
	c-0.5,0.1-1,0.1-1.6,0.1c0,0,0,0,0,0c-8.9,0-14.2-8.2-14.2-16c0-3.5,1.1-6.8,3.2-9.6l0.1-0.1c0.5-0.6,0.5-1.5,0-2.1l-0.2-0.2
	c-2.1-2.8-3.2-6.1-3.2-9.6c0-8.6,5.2-13.7,16.2-16c0,0,23.2-3.4,26.3-3.9v3.1L30.4,15c-0.8,0.1-1.5,0.8-1.5,1.7v49L20.9,67z
	 M47.6,16v47.1l-15.2,2.2v-38v-9.1L47.6,16z M71.5,42.2l0.2,0.2c2.1,2.8,3.2,6.1,3.2,9.6c0,8.6-5.2,13.7-16.2,16
	c0,0-23.2,3.4-26.3,3.9v-3.1l17.2-2.5c0.8-0.1,1.5-0.8,1.5-1.7v-49l8.1-1.2c4-0.4,7.6,0.7,10.5,3.3c3.3,3,5.3,7.7,5.3,12.6
	c0,3.5-1.1,6.8-3.3,9.7L71.6,40C71.1,40.7,71,41.6,71.5,42.2z"/>
</svg>
